<?xml version="1.0" encoding="UTF-8" standalone="no"?>
<!-- Created with Inkscape (http://www.inkscape.org/) -->

<svg
   width="192mm"
   height="35mm"
   viewBox="0 0 192 35"
   version="1.1"
   id="svg9910"
   inkscape:version="1.1.2 (b8e25be833, 2022-02-05)"
   sodipodi:docname="lgorganizamais.svg"
   xmlns:inkscape="http://www.inkscape.org/namespaces/inkscape"
   xmlns:sodipodi="http://sodipodi.sourceforge.net/DTD/sodipodi-0.dtd"
   xmlns="http://www.w3.org/2000/svg"
   xmlns:svg="http://www.w3.org/2000/svg">
  <sodipodi:namedview
     id="namedview9912"
     pagecolor="#ffffff"
     bordercolor="#666666"
     borderopacity="1.0"
     inkscape:pageshadow="2"
     inkscape:pageopacity="0.0"
     inkscape:pagecheckerboard="0"
     inkscape:document-units="mm"
     showgrid="false"
     width="192mm"
     inkscape:zoom="0.46235269"
     inkscape:cx="231.42506"
     inkscape:cy="253.05357"
     inkscape:window-width="1366"
     inkscape:window-height="705"
     inkscape:window-x="-8"
     inkscape:window-y="-8"
     inkscape:window-maximized="1"
     inkscape:current-layer="layer1" />
  <defs
     id="defs9907" />
  <g
     inkscape:label="Camada 1"
     inkscape:groupmode="layer"
     id="layer1">
    <g
       id="g379"
       inkscape:export-filename="D:\(Trabalho Anual) eCommerce\(principal) Site eCommerce\g379.png"
       inkscape:export-xdpi="96"
       inkscape:export-ydpi="96"
       transform="translate(-0.87858123,-123.78615)">
      <g
         aria-label="organiza+"
         id="text16090"
         style="font-size:29.8696px;font-family:Comfortaa;-inkscape-font-specification:Comfortaa;stroke-width:5.87983">
        <path
           d="m 57.234249,133.71028 1.08951,0.71314 q 0.09905,-0.71314 0.713134,-0.71314 h 1.782835 q 6.418206,1.78284 6.418206,6.41821 v 3.22891 q 0,6.31916 -8.201041,7.84448 -9.647118,-2.21864 -9.647118,-8.55761 v -2.15921 q 0,-5.22965 7.13134,-6.77478 z m 0,3.56567 q -3.922237,1.20837 -3.922237,3.92224 v 0.35657 q 0,4.15995 5.368314,5.36831 h 0.713134 q 3.506242,0 3.922237,-5.36831 0,-4.27881 -6.081448,-4.27881 z"
           style="font-size:40.5694px"
           id="path16104" />
        <path
           d="m 74.6198,151.63311 q -1.516815,0 -3.048216,-12.4408 0.408374,-1.10844 0.831332,-1.10844 h 0.554221 q 1.268875,0 1.939774,5.25051 h 0.277111 q 1.691832,-4.14207 5.527626,-4.14207 1.108442,0.40837 1.108442,0.81674 v 1.10845 q 0,0.6709 -3.048216,1.66266 -1.662663,1.83768 -2.493995,8.29873 l -0.816747,0.55422 z"
           style="font-family:'Baby Doll';-inkscape-font-specification:'Baby Doll';stroke-width:5.87984"
           id="path16106" />
        <path
           d="m 89.612941,156.08147 q 0,-0.46672 3.208649,-2.27523 1.487646,-1.61891 1.487646,-4.79839 h -0.247941 q -1.735587,1.51682 -3.704531,1.51682 -5.950584,-1.21054 -5.950584,-5.57138 v -0.75841 q 0,-3.42742 5.950584,-6.06726 1.327214,-0.24794 1.473062,-0.24794 3.894132,0 5.206761,8.85295 v 3.52951 q -1.195951,8.09455 -6.183941,8.09455 -1.123027,-0.49588 -1.239705,-1.00635 z m 3.937887,-11.27403 q 0,-0.75841 -1.093857,-4.44835 -5.177592,1.76476 -5.177592,4.44835 v 0.27711 q 0,2.43566 3.544098,2.78569 2.187715,0 2.727351,-3.0628 z"
           style="font-family:'Baby Doll';-inkscape-font-specification:'Baby Doll';stroke-width:5.87984"
           id="path16108" />
        <path
           d="m 108.38353,151.57477 h -1.06468 q -7.11737,0 -7.11737,-7.39447 0,-5.89225 7.91953,-6.85484 6.85484,0 6.85484,10.01973 v 2.37732 q 0,3.16489 -1.0501,3.16489 h -0.26253 q -0.74382,0 -1.06469,-2.63984 v -0.78758 h -0.26252 q -2.2023,2.11479 -3.95248,2.11479 z m -0.91884,-2.88778 q 4.20042,-1.66266 4.20042,-4.43377 0,-3.55868 -2.72735,-3.95247 h -1.22512 q -4.44836,0.81675 -4.44836,3.45659 0,4.69629 4.20041,4.69629 z"
           style="font-family:'Baby Doll';-inkscape-font-specification:'Baby Doll';stroke-width:5.87984"
           id="path16110" />
        <path
           d="m 127.19788,141.90507 h -0.33545 q -2.43566,0 -3.00446,3.86497 0,5.4547 -2.33357,5.4547 -1.85226,0 -2.66901,-9.31967 l 0.6709,-0.32086 h 0.6709 l 0.99177,0.64173 q 1.99811,-3.52951 7.01527,-3.52951 4.52127,0 7.67158,7.39447 v 1.60433 q 0,3.85037 -2.66901,3.85037 -1.3418,-0.65631 -1.3418,-1.60432 0,-0.33545 0.0875,-1.21054 0.0875,-0.88967 0.24794,-2.31897 0,-3.3545 -5.00257,-4.5067 z"
           style="font-family:'Baby Doll';-inkscape-font-specification:'Baby Doll';stroke-width:5.87984"
           id="path16112" />
        <path
           d="m 140.76171,138.95895 h 0.61256 q 2.45024,0 2.45024,10.16558 v 0.46672 q 0,0.35003 -1.22512,0.91884 -1.63349,0 -2.14396,-0.91884 -0.61256,-7.65701 -0.61256,-10.18017 z m -1.22512,-4.37543 q 0.30628,-0.81675 1.83768,-0.81675 h 0.30628 q 1.22512,0.43755 1.22512,1.92519 0,0.39379 -0.91884,0.81675 h -1.5314 q -0.43754,0 -0.91884,-0.81675 z"
           style="font-family:'Baby Doll';-inkscape-font-specification:'Baby Doll';stroke-width:5.87984"
           id="path16114" />
        <path
           d="m 148.6229,149.59125 q 1.37097,-2.12938 2.90237,-4.34626 1.54598,-2.21689 3.31074,-4.60879 v -0.49588 h -7.21946 q -0.35003,0 -0.74382,-0.75841 v -0.99176 q 0.42296,-0.99177 1.75017,-0.99177 h 8.95505 q 1.25429,0.64173 1.25429,1.98353 0,1.75017 -5.97976,9.46551 h 4.22958 l 1.48765,-0.24794 q 1.50223,0 1.75017,1.99811 0,0.35004 -1.2397,1.23971 h -8.96963 q -1.28346,0 -1.48765,-0.74382 z"
           style="font-family:'Baby Doll';-inkscape-font-specification:'Baby Doll';stroke-width:5.87984"
           id="path16116" />
        <path
           d="m 171.46264,151.57477 h -1.06468 q -7.11737,0 -7.11737,-7.39447 0,-5.89225 7.91953,-6.85484 6.85484,0 6.85484,10.01973 v 2.37732 q 0,3.16489 -1.0501,3.16489 h -0.26253 q -0.74382,0 -1.06469,-2.63984 v -0.78758 h -0.26252 q -2.2023,2.11479 -3.95248,2.11479 z m -0.91884,-2.88778 q 4.20042,-1.66266 4.20042,-4.43377 0,-3.55868 -2.72735,-3.95247 h -1.22513 q -4.44835,0.81675 -4.44835,3.45659 0,4.69629 4.20041,4.69629 z"
           style="font-family:'Baby Doll';-inkscape-font-specification:'Baby Doll';stroke-width:5.87984"
           id="path16118" />
        <path
           d="M 185.13207,150.35524 V 138.912 h 2.95451 v 11.44324 z m -4.0349,-4.38768 v -2.67891 h 11.02431 v 2.67891 z"
           style="font-weight:bold;font-size:22.5778px;font-family:'Cascadia Code';-inkscape-font-specification:'Cascadia Code Bold'"
           id="path16120" />
      </g>
      <path
         d="m 22.562174,124.73599 c -1.623729,0.15359 -5.880528,0.46079 -9.435176,0.65827 -6.8898711,0.37302 -8.0089268,0.5705 -8.6452512,1.53596 -0.197482,0.28525 -0.351076,0.96546 -0.351076,1.47013 0,1.18489 -0.1097061,1.36042 -1.4481907,2.21617 -1.5140155,0.98741 -1.4701306,1.51402 0.1755379,2.65501 l 1.2726528,0.8777 v 1.75538 c 0,0.9874 0.153594,2.91831 0.329132,4.30068 0.1755391,1.38236 0.3949608,3.81796 0.5046733,5.41975 0.1535951,2.32588 0.2852483,3.0719 0.7240949,3.94961 0.4169026,0.81185 0.6582673,1.07517 1.1190557,1.11905 0.943517,0.10971 1.140998,-0.5705 0.5704988,-1.8651 -0.37302,-0.8338 -0.5046721,-1.71149 -0.6363275,-4.12513 -0.08777,-1.68957 -0.3291321,-4.10322 -0.5046711,-5.37587 -0.3949608,-2.58919 -0.4388445,-4.38845 -0.1535951,-4.38845 0.1097177,0 0.7679786,0.2633 1.4701317,0.59244 1.1848802,0.5705 1.5140162,0.61438 3.7082425,0.59244 2.303938,-0.022 14.789087,-0.83381 23.258802,-1.51402 2.172282,-0.17554 4.256798,-0.32913 4.651759,-0.32913 h 0.724097 l -0.131655,1.57984 c -0.06581,0.87769 -0.241368,3.8399 -0.416905,6.58268 -0.241361,3.9935 -0.394961,5.22227 -0.789921,6.25354 -0.263305,0.70216 -0.482731,1.62373 -0.504673,2.04065 -0.02195,0.70215 0.02196,0.76797 0.636328,0.76797 0.526616,0 0.746035,-0.1536 1.162938,-0.92159 0.789923,-1.44817 1.097115,-3.46686 1.492076,-10.15926 0.197479,-3.44494 0.394961,-6.27548 0.416905,-6.31937 0.02195,-0.0439 0.767976,-0.13165 1.623723,-0.19748 1.404306,-0.10972 1.579843,-0.17554 1.689555,-0.65827 0.175538,-0.65826 -0.153592,-1.03129 -1.184882,-1.33848 -1.07517,-0.32913 -1.908972,-1.22877 -2.216165,-2.3917 -0.351081,-1.27266 -1.162945,-2.17229 -2.391708,-2.58919 -0.570498,-0.19748 -2.216171,-0.83381 -3.66436,-1.38237 l -2.633071,-1.00934 -3.730185,-0.0439 c -2.040631,-0.022 -5.068664,0.0877 -6.69239,0.24137 z m 9.237693,1.64567 c 0.811863,0.10972 2.281996,0.54856 3.269396,0.9874 1.009342,0.41691 2.347824,0.89963 2.984147,1.09711 1.119057,0.32914 1.843154,0.94353 1.843154,1.60179 0,0.1536 0.19748,0.70216 0.438842,1.18488 0.241367,0.50468 0.438847,0.94353 0.438847,0.9874 -13.353071,1.06944 -7.142395,0.48338 -27.546675,2.01942 0,0.48274 -3.8307323,0.0431 -6.4638056,-1.11978 l -2.6111303,-1.14099 0.7899226,-0.68022 c 0.7240939,-0.63633 0.8118624,-0.81186 0.8996319,-2.04062 0.04389,-0.74605 0.197482,-1.42625 0.3071923,-1.49208 0.1316532,-0.0877 3.4010508,-0.32913 7.2848321,-0.54855 3.86184,-0.24137 8.535541,-0.54856 10.334808,-0.72411 4.059318,-0.37301 6.143834,-0.39496 8.030867,-0.13165 z"
         id="path16092"
         style="fill:#ffffff;fill-opacity:1;stroke:#000000;stroke-width:1.41116;stroke-dasharray:none;stroke-opacity:1"
         sodipodi:nodetypes="sccscccssccccccscccscccccsccsccccccccsscccscccccccccccc" />
      <path
         d="m 10.858821,137.68367 c -0.460422,0.36828 -0.43072,1.55616 0.205605,8.99459 0.373018,4.45428 0.504672,4.93702 1.272651,4.93702 0.987402,0 1.053229,-0.32914 0.680211,-3.97156 -0.197482,-1.86509 -0.416904,-4.89312 -0.48273,-6.73628 -0.08777,-2.45753 -0.301511,-3.0059 -0.467696,-3.26796 -0.150031,-0.23658 -0.777404,-0.30026 -1.027722,-0.10004 z"
         id="path16094"
         style="fill:#ffffff;fill-opacity:1;stroke:#000000;stroke-width:0.235193;stroke-dasharray:none;stroke-opacity:1"
         sodipodi:nodetypes="scscssss" />
      <path
         d="m 36.495511,151.61528 c -0.351075,0.24135 -1.140995,0.52661 -1.75538,0.63632 -1.382364,0.28525 -7.592024,0.78993 -14.854916,1.22877 -5.836641,0.35107 -6.867927,0.30717 -7.9431,-0.4608 -0.570498,-0.39497 -1.316535,-0.39497 -1.667612,0.0219 -0.7899213,0.94351 1.316537,2.30394 3.839897,2.47947 2.589188,0.15361 19.221426,-1.00934 21.415652,-1.51401 1.206827,-0.2633 2.281997,-0.87769 2.611132,-1.49208 0.175537,-0.37301 0.153594,-0.5266 -0.219424,-0.89962 -0.548559,-0.54857 -0.614384,-0.54857 -1.426249,0 z"
         id="path16096"
         style="fill:#ffffff;fill-opacity:1;stroke:#000000;stroke-width:1.41116;stroke-dasharray:none;stroke-opacity:1"
         sodipodi:nodetypes="scccccccsss" />
      <path
         d="m 22.562174,124.73599 c -1.623729,0.15359 -5.880528,0.46079 -9.435176,0.65827 -6.8898711,0.37302 -8.0089268,0.5705 -8.6452512,1.53596 -0.197482,0.28525 -0.351076,0.96546 -0.351076,1.47013 0,1.18489 -0.1097061,1.36042 -1.4481907,2.21617 -1.5140155,0.98741 -1.4701306,1.51402 0.1755379,2.65501 l 1.2726528,0.8777 v 1.75538 c 0,0.9874 0.153594,2.91831 0.329132,4.30068 0.1755391,1.38236 0.3949608,3.81796 0.5046733,5.41975 0.1535951,2.32588 0.2852483,3.0719 0.7240949,3.94961 0.4169026,0.81185 0.6582673,1.07517 1.1190557,1.11905 0.943517,0.10971 1.140998,-0.5705 0.5704988,-1.8651 -0.37302,-0.8338 -0.5046721,-1.71149 -0.6363275,-4.12513 -0.08777,-1.68957 -0.3291321,-4.10322 -0.5046711,-5.37587 -0.3949608,-2.58919 -0.4388445,-4.38845 -0.1535951,-4.38845 0.1097177,0 0.7679786,0.2633 1.4701317,0.59244 1.1848802,0.5705 1.5140162,0.61438 3.7082425,0.59244 2.303938,-0.022 14.789087,-0.83381 23.258802,-1.51402 2.172282,-0.17554 4.256798,-0.32913 4.651759,-0.32913 h 0.724097 l -0.131655,1.57984 c -0.06581,0.87769 -0.241368,3.8399 -0.416905,6.58268 -0.241361,3.9935 -0.394961,5.22227 -0.789921,6.25354 -0.263305,0.70216 -0.482731,1.62373 -0.504673,2.04065 -0.02195,0.70215 0.02196,0.76797 0.636328,0.76797 0.526616,0 0.746035,-0.1536 1.162938,-0.92159 0.789923,-1.44817 1.097115,-3.46686 1.492076,-10.15926 0.197479,-3.44494 0.394961,-6.27548 0.416905,-6.31937 0.02195,-0.0439 0.767976,-0.13165 1.623723,-0.19748 1.404306,-0.10972 1.579843,-0.17554 1.689555,-0.65827 0.175538,-0.65826 -0.153592,-1.03129 -1.184882,-1.33848 -1.07517,-0.32913 -1.908972,-1.22877 -2.216165,-2.3917 -0.351081,-1.27266 -1.162945,-2.17229 -2.391708,-2.58919 -0.570498,-0.19748 -2.216171,-0.83381 -3.66436,-1.38237 l -2.633071,-1.00934 -3.730185,-0.0439 c -2.040631,-0.022 -5.068664,0.0877 -6.69239,0.24137 z m 9.237693,1.64567 c 0.811863,0.10972 2.281996,0.54856 3.269396,0.9874 1.009342,0.41691 2.347824,0.89963 2.984147,1.09711 1.119057,0.32914 1.843154,0.94353 1.843154,1.60179 0,0.1536 0.19748,0.70216 0.438842,1.18488 0.241367,0.50468 0.438847,0.94353 0.438847,0.9874 -13.353071,1.06944 -7.142395,0.48338 -27.546675,2.01942 0,0.48274 -3.8307323,0.0431 -6.4638056,-1.11978 l -2.6111303,-1.14099 0.7899226,-0.68022 c 0.7240939,-0.63633 0.8118624,-0.81186 0.8996319,-2.04062 0.04389,-0.74605 0.197482,-1.42625 0.3071923,-1.49208 0.1316532,-0.0877 3.4010508,-0.32913 7.2848321,-0.54855 3.86184,-0.24137 8.535541,-0.54856 10.334808,-0.72411 4.059318,-0.37301 6.143834,-0.39496 8.030867,-0.13165 z"
         id="path16098"
         style="fill:#000000;fill-opacity:1;stroke:#000000;stroke-width:1.41116;stroke-dasharray:none;stroke-opacity:1"
         sodipodi:nodetypes="sccscccssccccccscccscccccsccsccccccccsscccscccccccccccc" />
      <path
         d="m 10.858821,137.68367 c -0.460422,0.36828 -0.43072,1.55616 0.205605,8.99459 0.373018,4.45428 0.504672,4.93702 1.272651,4.93702 0.987402,0 1.053229,-0.32914 0.680211,-3.97156 -0.197482,-1.86509 -0.416904,-4.89312 -0.48273,-6.73628 -0.08777,-2.45753 -0.301511,-3.0059 -0.467696,-3.26796 -0.150031,-0.23658 -0.777404,-0.30026 -1.027722,-0.10004 z"
         id="path16100"
         style="fill:#000000;fill-opacity:1;stroke:#000000;stroke-width:0.235193;stroke-dasharray:none;stroke-opacity:1"
         sodipodi:nodetypes="scscssss" />
      <path
         d="m 36.495511,151.61528 c -0.351075,0.24135 -1.140995,0.52661 -1.75538,0.63632 -1.382364,0.28525 -7.592024,0.78993 -14.854916,1.22877 -5.836641,0.35107 -6.867927,0.30717 -7.9431,-0.4608 -0.570498,-0.39497 -1.316535,-0.39497 -1.667612,0.0219 -0.7899213,0.94351 1.316537,2.30394 3.839897,2.47947 2.589188,0.15361 19.221426,-1.00934 21.415652,-1.51401 1.206827,-0.2633 2.281997,-0.87769 2.611132,-1.49208 0.175537,-0.37301 0.153594,-0.5266 -0.219424,-0.89962 -0.548559,-0.54857 -0.614384,-0.54857 -1.426249,0 z"
         id="path16102"
         style="fill:#000000;fill-opacity:1;stroke:#000000;stroke-width:1.41116;stroke-dasharray:none;stroke-opacity:1"
         sodipodi:nodetypes="scccccccsss" />
    </g>
  </g>
</svg>
